<?xml version="1.0" encoding="utf-8"?>
<!-- Generator: Adobe Illustrator 23.0.3, SVG Export Plug-In . SVG Version: 6.00 Build 0)  -->
<svg version="1.1" id="Layer_1" xmlns="http://www.w3.org/2000/svg" xmlns:xlink="http://www.w3.org/1999/xlink" x="0px" y="0px"
	 viewBox="0 0 240 160" style="enable-background:new 0 0 240 160;" xml:space="preserve">
<style type="text/css">
	.st0{fill:#FFFFFF;}
	.st1{display:none;fill:#C8161D;}
	.st2{fill:#FFCA40;}
	.st3{fill:none;}
</style>
<g>
	<rect class="st0" width="240" height="160"/>
</g>
<g>
	<g>
		<rect x="-2" y="-2" class="st1" width="244" height="164"/>
		<g>
			<path class="st2" d="M144,38.8c9.5,0,17.1,39.9,17.1,89.2h13.7c0-53-13.8-96-30.9-96c-9.7,0-18.3,12.9-24,33.1
				C114.3,44.9,105.7,32,96,32c-17,0-30.9,43-30.9,96h13.7c0-49.2,7.7-89.2,17.1-89.2c9.5,0,17.2,36.8,17.2,82.3h13.7
				C126.8,75.7,134.5,38.8,144,38.8"/>
			<path class="st2" d="M183.8,116.9c3,0,5.5,2.4,5.5,5.5c0,3.2-2.5,5.6-5.5,5.6c-3,0-5.6-2.4-5.6-5.6
				C178.3,119.3,180.8,116.9,183.8,116.9 M183.8,127.2c2.6,0,4.5-2,4.5-4.8c0-2.7-2-4.7-4.5-4.7c-2.6,0-4.6,2.1-4.6,4.7
				C179.3,125.1,181.2,127.2,183.8,127.2 M181.7,119.2h2.5c1.5,0,2.3,0.6,2.3,1.8c0,1.2-0.7,1.7-1.7,1.8l1.8,2.9h-1.1l-1.8-2.8h-1.1
				v2.8h-1V119.2z M182.7,122.1h1.1c0.9,0,1.7,0,1.7-1.1c0-0.9-0.7-1-1.4-1h-1.3V122.1z"/>
		</g>
		<rect x="96.4" y="58.6" class="st3" width="49.1" height="45"/>
	</g>
</g>
</svg>
