<?xml version="1.0" encoding="utf-8"?>
<!-- Generator: Adobe Illustrator 23.0.3, SVG Export Plug-In . SVG Version: 6.00 Build 0)  -->
<svg version="1.1" id="Layer_1" xmlns="http://www.w3.org/2000/svg" xmlns:xlink="http://www.w3.org/1999/xlink" x="0px" y="0px"
	 viewBox="0 0 240 160" style="enable-background:new 0 0 240 160;" xml:space="preserve">
<style type="text/css">
	.st0{fill:#FFFFFF;}
	.st1{fill:#4D4D4F;}
</style>
<g>
	<rect class="st0" width="240" height="160"/>
</g>
<g>
	<g>
		<rect class="st0" width="240" height="160"/>
	</g>
	<g>
		<g>
			<path class="st1" d="M88.1,88.8h5.5v1.1h-4.4v3.5h4.4v1.1h-4.4v5.4h-1.1V88.8z"/>
			<path class="st1" d="M100.1,88.5c1.7,0,3.1,0.6,4.2,1.7c1.1,1.1,1.7,2.5,1.7,4.1c0,1.6-0.6,3-1.7,4.1c-1.1,1.1-2.5,1.7-4.1,1.7
				c-1.6,0-3-0.6-4.1-1.7c-1.1-1.1-1.7-2.5-1.7-4.1c0-1.1,0.3-2,0.8-3c0.5-0.9,1.2-1.6,2.1-2.1C98.2,88.8,99.1,88.5,100.1,88.5z
				 M100.2,89.6c-0.8,0-1.6,0.2-2.3,0.6s-1.3,1-1.7,1.7s-0.6,1.5-0.6,2.4c0,1.3,0.5,2.4,1.4,3.3c0.9,0.9,2,1.4,3.3,1.4
				c0.9,0,1.7-0.2,2.4-0.6c0.7-0.4,1.3-1,1.7-1.7c0.4-0.7,0.6-1.5,0.6-2.4c0-0.9-0.2-1.7-0.6-2.4c-0.4-0.7-1-1.3-1.7-1.7
				C101.8,89.8,101,89.6,100.2,89.6z"/>
			<path class="st1" d="M112.9,88.5c1.7,0,3.1,0.6,4.2,1.7c1.1,1.1,1.7,2.5,1.7,4.1c0,1.6-0.6,3-1.7,4.1c-1.1,1.1-2.5,1.7-4.1,1.7
				c-1.6,0-3-0.6-4.1-1.7c-1.1-1.1-1.7-2.5-1.7-4.1c0-1.1,0.3-2,0.8-3c0.5-0.9,1.2-1.6,2.1-2.1C110.9,88.8,111.9,88.5,112.9,88.5z
				 M112.9,89.6c-0.8,0-1.6,0.2-2.3,0.6s-1.3,1-1.7,1.7c-0.4,0.7-0.6,1.5-0.6,2.4c0,1.3,0.5,2.4,1.4,3.3c0.9,0.9,2,1.4,3.3,1.4
				c0.9,0,1.7-0.2,2.4-0.6c0.7-0.4,1.3-1,1.7-1.7c0.4-0.7,0.6-1.5,0.6-2.4c0-0.9-0.2-1.7-0.6-2.4c-0.4-0.7-1-1.3-1.7-1.7
				C114.6,89.8,113.8,89.6,112.9,89.6z"/>
			<path class="st1" d="M120.4,99.8v-11h2.3c1.7,0,2.9,0.1,3.6,0.4c1.1,0.4,1.9,1,2.5,1.9c0.6,0.9,0.9,2,0.9,3.3
				c0,1.1-0.2,2.1-0.7,2.9c-0.5,0.8-1.1,1.5-1.9,1.9c-0.8,0.4-1.8,0.6-3.2,0.6L120.4,99.8L120.4,99.8z M121.4,98.8h1.3
				c1.5,0,2.6-0.1,3.2-0.3c0.8-0.3,1.5-0.8,2-1.5c0.5-0.7,0.7-1.6,0.7-2.6c0-1.1-0.3-2-0.8-2.7c-0.5-0.8-1.2-1.3-2.2-1.6
				c-0.7-0.2-1.8-0.3-3.4-0.3h-0.8L121.4,98.8L121.4,98.8z"/>
			<path class="st1" d="M130.1,97.8l0.9-0.6c0.7,1.2,1.4,1.8,2.3,1.8c0.4,0,0.7-0.1,1-0.3c0.3-0.2,0.6-0.4,0.7-0.7
				c0.2-0.3,0.3-0.6,0.3-0.9c0-0.4-0.1-0.7-0.4-1.1c-0.3-0.5-1-1.1-1.9-1.8c-0.9-0.7-1.5-1.2-1.7-1.5c-0.4-0.5-0.6-1.1-0.6-1.7
				c0-0.5,0.1-0.9,0.3-1.3c0.2-0.4,0.6-0.7,1-0.9c0.4-0.2,0.9-0.3,1.4-0.3c0.5,0,1,0.1,1.5,0.4c0.5,0.3,0.9,0.7,1.4,1.4l-0.9,0.7
				c-0.4-0.6-0.8-0.9-1.1-1.1s-0.6-0.3-1-0.3c-0.4,0-0.8,0.1-1.1,0.4c-0.3,0.3-0.4,0.6-0.4,1c0,0.2,0,0.5,0.1,0.7
				c0.1,0.2,0.3,0.5,0.6,0.7c0.1,0.1,0.6,0.5,1.4,1.1c1,0.7,1.6,1.3,2,1.9c0.4,0.6,0.5,1.1,0.5,1.7c0,0.8-0.3,1.5-0.9,2.1
				s-1.3,0.9-2.2,0.9c-0.7,0-1.3-0.2-1.8-0.5C131,99.2,130.5,98.6,130.1,97.8z"/>
			<path class="st1" d="M146.4,88.8l5.1,11h-1.2l-1.7-3.6h-4.8l-1.7,3.6h-1.2l5.2-11H146.4z M146.3,91.1l-1.9,4h3.8L146.3,91.1z"/>
			<path class="st1" d="M152.7,88.8h1.1v6.7c0,0.8,0,1.3,0,1.5c0.1,0.4,0.2,0.8,0.4,1.1c0.2,0.3,0.5,0.5,0.9,0.7
				c0.4,0.2,0.8,0.3,1.2,0.3c0.4,0,0.7-0.1,1.1-0.2c0.3-0.2,0.6-0.4,0.8-0.6c0.2-0.3,0.4-0.6,0.5-1c0.1-0.3,0.1-0.9,0.1-1.7v-6.7
				h1.1v6.7c0,1-0.1,1.8-0.3,2.4c-0.2,0.6-0.6,1.1-1.2,1.6c-0.6,0.5-1.3,0.7-2.1,0.7c-0.9,0-1.7-0.2-2.3-0.6c-0.6-0.4-1.1-1-1.3-1.7
				c-0.1-0.4-0.2-1.2-0.2-2.3L152.7,88.8L152.7,88.8z"/>
			<path class="st1" d="M160.9,97.8l0.9-0.6c0.7,1.2,1.4,1.8,2.3,1.8c0.4,0,0.7-0.1,1-0.3c0.3-0.2,0.6-0.4,0.7-0.7
				c0.2-0.3,0.3-0.6,0.3-0.9c0-0.4-0.1-0.7-0.4-1.1c-0.3-0.5-1-1.1-1.9-1.8c-0.9-0.7-1.5-1.2-1.7-1.5c-0.4-0.5-0.6-1.1-0.6-1.7
				c0-0.5,0.1-0.9,0.3-1.3c0.2-0.4,0.6-0.7,1-0.9c0.4-0.2,0.9-0.3,1.4-0.3c0.5,0,1,0.1,1.5,0.4c0.5,0.3,0.9,0.7,1.4,1.4l-0.9,0.7
				c-0.4-0.6-0.8-0.9-1.1-1.1s-0.6-0.3-1-0.3c-0.4,0-0.8,0.1-1.1,0.4c-0.3,0.3-0.4,0.6-0.4,1c0,0.2,0,0.5,0.1,0.7
				c0.1,0.2,0.3,0.5,0.6,0.7c0.1,0.1,0.6,0.5,1.4,1.1c1,0.7,1.6,1.3,2,1.9c0.4,0.6,0.5,1.1,0.5,1.7c0,0.8-0.3,1.5-0.9,2.1
				c-0.6,0.6-1.3,0.9-2.2,0.9c-0.7,0-1.3-0.2-1.8-0.5C161.9,99.2,161.4,98.6,160.9,97.8z"/>
			<path class="st1" d="M168,89.9v-1.1h6v1.1h-2.5v10h-1.1v-10H168z"/>
			<path class="st1" d="M175.1,88.8h2.2c1.2,0,2.1,0,2.5,0.1c0.7,0.1,1.2,0.5,1.6,1c0.4,0.5,0.6,1.1,0.6,1.8c0,0.6-0.1,1.1-0.4,1.6
				c-0.3,0.5-0.7,0.8-1.2,1c-0.5,0.2-1.2,0.4-2.2,0.4l4,5.1h-1.4l-4-5.1h-0.6v5.1h-1.1L175.1,88.8L175.1,88.8z M176.2,89.9v3.7
				l1.9,0c0.7,0,1.3-0.1,1.6-0.2c0.4-0.1,0.6-0.4,0.8-0.7c0.2-0.3,0.3-0.6,0.3-1c0-0.4-0.1-0.7-0.3-1s-0.5-0.5-0.8-0.6
				c-0.3-0.1-0.9-0.2-1.6-0.2C178.2,89.9,176.2,89.9,176.2,89.9z"/>
			<path class="st1" d="M188.3,88.8l5.1,11h-1.2l-1.7-3.6h-4.8l-1.7,3.6h-1.2l5.2-11H188.3z M188.1,91.1l-1.9,4h3.8L188.1,91.1z"/>
			<path class="st1" d="M194.5,88.8h1.1v10h4.2v1.1h-5.4V88.8z"/>
			<path class="st1" d="M200.8,88.8h1.1v11h-1.1V88.8z"/>
			<path class="st1" d="M208.4,88.8l5.1,11h-1.2l-1.7-3.6h-4.8l-1.7,3.6h-1.2l5.2-11H208.4z M208.2,91.1l-1.9,4h3.8L208.2,91.1z"/>
		</g>
		<g>
			<g>
				<path class="st1" d="M51.9,107.7c-14.9,0-27-12.1-27-27s12.1-27,27-27c14.9,0,27,12.1,27,27C78.9,95.5,66.8,107.7,51.9,107.7z
					 M51.9,54.7c-14.3,0-26,11.6-26,26s11.6,26,26,26s26-11.6,26-26S66.2,54.7,51.9,54.7z"/>
			</g>
			<g>
				<g>
					<g>
						<g>
							<g>
								<path class="st1" d="M48,84.3c0,0-0.1,0-0.2,0c-0.3-0.1-0.4-0.4-0.3-0.6c0,0,1.5-4.7-0.8-8.7c-1.6-2.7-4.5-4.6-8.7-5.6
									c-0.3-0.1-0.5-0.3-0.4-0.6c0.1-0.3,0.3-0.5,0.6-0.4c4.5,1,7.7,3.1,9.4,6.1c2.5,4.4,0.9,9.3,0.9,9.6
									C48.4,84.1,48.2,84.3,48,84.3z"/>
							</g>
							<g>
								<path class="st1" d="M47.4,84.6C47.4,84.6,47.4,84.6,47.4,84.6c-0.3,0-5.4-0.7-8.3-4.9c-2-2.8-2.5-6.6-1.5-11.1
									c0.1-0.3,0.3-0.5,0.6-0.4s0.5,0.3,0.4,0.6c-1,4.2-0.5,7.7,1.3,10.2c2.7,3.8,7.5,4.5,7.5,4.5c0.3,0,0.5,0.3,0.4,0.6
									C47.9,84.5,47.7,84.6,47.4,84.6z"/>
							</g>
						</g>
						<g>
							<path class="st1" d="M51.9,90c-0.2,0-0.3-0.1-0.4-0.2L37.7,69.1c-0.2-0.2-0.1-0.6,0.1-0.7c0.2-0.2,0.6-0.1,0.7,0.1l13.7,20.7
								c0.2,0.2,0.1,0.6-0.1,0.7C52.1,90,52,90,51.9,90z"/>
						</g>
						<g>
							<g>
								<path class="st1" d="M55.3,80.7c-0.2,0-0.4-0.1-0.5-0.3c-0.1-0.2-1.7-4.8,0.6-9.1c1.6-2.9,4.5-4.9,8.8-6
									c0.3-0.1,0.6,0.1,0.6,0.4c0.1,0.3-0.1,0.6-0.4,0.6c-4,1-6.7,2.8-8.1,5.5c-2.1,3.9-0.6,8.2-0.6,8.3c0.1,0.3,0,0.6-0.3,0.7
									C55.5,80.7,55.4,80.7,55.3,80.7z"/>
							</g>
							<g>
								<path class="st1" d="M55.9,81.1c-0.3,0-0.5-0.2-0.5-0.4c0-0.3,0.1-0.5,0.4-0.6c0,0,4.6-0.7,7-4.4c1.7-2.5,2-5.8,1-9.8
									c-0.1-0.3,0.1-0.6,0.4-0.6c0.3-0.1,0.6,0.1,0.6,0.4c1.1,4.3,0.7,7.8-1.1,10.6C61,80.3,56.2,81,55.9,81.1
									C56,81.1,55.9,81.1,55.9,81.1z"/>
							</g>
						</g>
						<g>
							<path class="st1" d="M51.9,86c-0.1,0-0.2,0-0.3-0.1c-0.2-0.2-0.3-0.5-0.2-0.7l12.5-19.8c0.2-0.2,0.5-0.3,0.7-0.2
								c0.2,0.2,0.3,0.5,0.2,0.7L52.3,85.8C52.2,85.9,52.1,86,51.9,86z"/>
						</g>
					</g>
					<g>
						<path class="st1" d="M51.9,105c-13.4,0-24.4-10.9-24.4-24.4c0-13.4,10.9-24.4,24.4-24.4s24.4,10.9,24.4,24.4
							C76.2,94.1,65.3,105,51.9,105z M51.9,57.3c-12.9,0-23.3,10.5-23.3,23.3S39,104,51.9,104s23.3-10.5,23.3-23.3
							S64.8,57.3,51.9,57.3z"/>
					</g>
					<g>
						<path class="st1" d="M44.1,103.7c-0.1,0-0.3,0-0.4-0.2c-0.2-0.2-0.2-0.5,0-0.7C56,91.2,71.4,88.7,73.9,88.3l0.7-2.6
							c-17.8,0.7-34.5,15.5-34.7,15.7c-0.2,0.2-0.5,0.2-0.7,0s-0.2-0.5,0-0.7c0.2-0.2,17.6-15.7,36.1-16c0.2,0,0.3,0.1,0.4,0.2
							c0.1,0.1,0.1,0.3,0.1,0.5l-1,3.6c-0.1,0.2-0.2,0.4-0.4,0.4c-0.2,0-16.8,1.9-29.9,14.3C44.4,103.7,44.3,103.7,44.1,103.7z"/>
					</g>
					<g>
						<path class="st1" d="M49.9,105c-0.1,0-0.3,0-0.4-0.1c-0.2-0.2-0.2-0.5,0-0.7c0.1-0.1,7.8-7.9,22.6-11.6
							c0.3-0.1,0.6,0.1,0.6,0.4c0.1,0.3-0.1,0.6-0.4,0.6c-14.5,3.7-22.1,11.2-22.1,11.3C50.2,105,50,105,49.9,105z"/>
					</g>
					<g>
						<path class="st1" d="M47.9,95.4c-0.1,0-0.2,0-0.2-0.1c-9.6-5.1-18.2-6-18.3-6c-0.2,0-0.4-0.2-0.4-0.4l-1-3.6
							c0-0.2,0-0.3,0.1-0.5c0.1-0.1,0.3-0.2,0.4-0.2c7.1,0.1,14.8,2.4,22.9,6.9V67.7c0-0.3,0.2-0.5,0.5-0.5s0.5,0.2,0.5,0.5v24.7
							c0,0.2-0.1,0.4-0.3,0.4c-0.2,0.1-0.4,0.1-0.5,0c-8-4.5-15.5-6.9-22.5-7.2l0.7,2.6c1.7,0.2,9.6,1.5,18.3,6.1
							c0.3,0.1,0.4,0.4,0.2,0.7C48.3,95.3,48.1,95.4,47.9,95.4z"/>
					</g>
					<g>
						<path class="st1" d="M43.8,98.2c-0.1,0-0.2,0-0.2-0.1c-3.8-1.9-7.9-3.5-12.2-4.6c-0.3-0.1-0.4-0.4-0.4-0.6
							c0.1-0.3,0.3-0.4,0.6-0.4c4.4,1.1,8.6,2.7,12.5,4.7c0.3,0.1,0.4,0.4,0.2,0.7C44.2,98.1,44,98.2,43.8,98.2z"/>
					</g>
				</g>
				<g>
					<path class="st1" d="M51.9,68.3c-2.4,0-4.3-1.9-4.3-4.3s1.9-4.3,4.3-4.3c2.4,0,4.3,1.9,4.3,4.3C56.2,66.3,54.3,68.3,51.9,68.3z
						 M51.9,60.7c-1.8,0-3.2,1.5-3.2,3.2s1.5,3.2,3.2,3.2s3.2-1.5,3.2-3.2C55.2,62.2,53.7,60.7,51.9,60.7z"/>
				</g>
				<g>
					<path class="st1" d="M51.9,60.7c-0.3,0-0.5-0.2-0.5-0.5v-3.4c0-0.3,0.2-0.5,0.5-0.5s0.5,0.2,0.5,0.5v3.4
						C52.4,60.5,52.2,60.7,51.9,60.7z"/>
				</g>
			</g>
		</g>
		<g>
			<path class="st1" d="M87.9,83.7V64.6h4c2.9,0,4.9,0.2,6.2,0.7c1.9,0.6,3.3,1.8,4.4,3.4c1,1.6,1.6,3.5,1.6,5.7
				c0,1.9-0.4,3.6-1.2,5.1c-0.8,1.5-1.9,2.5-3.2,3.2c-1.3,0.7-3.2,1-5.6,1H87.9z M89.8,81.9H92c2.6,0,4.5-0.2,5.5-0.5
				c1.4-0.5,2.6-1.3,3.4-2.5c0.8-1.2,1.2-2.7,1.2-4.5c0-1.8-0.4-3.4-1.3-4.7c-0.9-1.3-2.1-2.2-3.7-2.7c-1.2-0.4-3.2-0.6-5.9-0.6
				h-1.4L89.8,81.9L89.8,81.9z"/>
			<path class="st1" d="M107.3,64.6h11v1.9h-9.1v6h9v1.9h-9v7.5h9v1.9h-10.9L107.3,64.6L107.3,64.6z"/>
			<path class="st1" d="M121,64.6h1.9v17.3h7.4v1.8H121C121,83.7,121,64.6,121,64.6z"/>
			<path class="st1" d="M132.5,64.6h1.9v19.2h-1.9V64.6z"/>
			<path class="st1" d="M156.1,68.1l-1.5,1.2c-0.8-1.1-1.8-1.9-3-2.5c-1.2-0.6-2.4-0.8-3.8-0.8c-1.5,0-2.9,0.4-4.2,1.1
				c-1.3,0.7-2.3,1.7-3,3s-1.1,2.6-1.1,4.2c0,2.3,0.8,4.3,2.4,5.8c1.6,1.6,3.6,2.3,6.1,2.3c2.7,0,4.9-1.1,6.7-3.1l1.5,1.1
				c-1,1.2-2.1,2.2-3.6,2.8c-1.4,0.7-3,1-4.8,1c-3.4,0-6-1.1-7.9-3.3c-1.6-1.9-2.4-4.2-2.4-6.8c0-2.8,1-5.2,3-7.1
				c2-1.9,4.4-2.9,7.4-2.9c1.8,0,3.4,0.4,4.8,1.1C154,65.9,155.2,66.9,156.1,68.1z"/>
			<path class="st1" d="M159.2,64.6h1.9v19.2h-1.9V64.6z"/>
			<path class="st1" d="M174,64.1c2.9,0,5.3,1,7.3,2.9c2,1.9,2.9,4.3,2.9,7.2c0,2.8-1,5.2-2.9,7.1c-1.9,2-4.3,2.9-7.1,2.9
				c-2.8,0-5.2-1-7.2-2.9c-2-1.9-2.9-4.3-2.9-7.1c0-1.8,0.4-3.6,1.3-5.1c0.9-1.6,2.1-2.8,3.6-3.7C170.6,64.5,172.3,64.1,174,64.1z
				 M174.1,66c-1.4,0-2.8,0.4-4,1.1c-1.3,0.7-2.3,1.7-3,3c-0.7,1.2-1.1,2.6-1.1,4.2c0,2.3,0.8,4.2,2.4,5.8c1.6,1.6,3.5,2.4,5.7,2.4
				c1.5,0,2.9-0.4,4.1-1.1c1.3-0.7,2.3-1.7,3-3c0.7-1.2,1.1-2.6,1.1-4.2c0-1.5-0.4-2.9-1.1-4.1c-0.7-1.2-1.7-2.2-3-3
				C177,66.3,175.6,66,174.1,66z"/>
			<path class="st1" d="M187.6,64.6h1.9v11.6c0,1.4,0,2.2,0.1,2.6c0.1,0.8,0.3,1.4,0.7,1.9c0.3,0.5,0.9,0.9,1.6,1.3s1.4,0.5,2.2,0.5
				c0.6,0,1.2-0.1,1.8-0.4c0.6-0.3,1.1-0.6,1.5-1.1c0.4-0.5,0.7-1.1,0.9-1.7c0.1-0.5,0.2-1.5,0.2-3V64.6h1.9v11.6
				c0,1.7-0.2,3.1-0.5,4.2c-0.3,1.1-1,2-2,2.8c-1,0.8-2.2,1.2-3.6,1.2c-1.5,0-2.9-0.4-4-1.1s-1.8-1.7-2.2-2.9
				c-0.2-0.7-0.4-2.1-0.4-4L187.6,64.6L187.6,64.6z"/>
			<path class="st1" d="M202.5,80.2l1.6-1c1.1,2.1,2.5,3.2,4,3.2c0.6,0,1.2-0.1,1.8-0.5c0.6-0.3,1-0.7,1.3-1.2
				c0.3-0.5,0.4-1,0.4-1.6c0-0.6-0.2-1.3-0.6-1.9c-0.6-0.8-1.7-1.9-3.3-3.1c-1.6-1.2-2.6-2.1-3-2.6c-0.7-0.9-1-1.9-1-2.9
				c0-0.8,0.2-1.6,0.6-2.3c0.4-0.7,1-1.2,1.7-1.6c0.7-0.4,1.5-0.6,2.4-0.6c0.9,0,1.8,0.2,2.5,0.7c0.8,0.4,1.6,1.3,2.5,2.5l-1.6,1.2
				c-0.7-1-1.3-1.6-1.8-1.9c-0.5-0.3-1.1-0.5-1.7-0.5c-0.8,0-1.4,0.2-1.9,0.7c-0.5,0.5-0.7,1-0.7,1.7c0,0.4,0.1,0.8,0.3,1.2
				c0.2,0.4,0.5,0.8,1,1.3c0.3,0.2,1.1,0.9,2.5,1.9c1.7,1.2,2.8,2.3,3.4,3.3c0.6,1,0.9,1.9,0.9,2.9c0,1.4-0.5,2.6-1.6,3.6
				c-1.1,1-2.3,1.5-3.8,1.5c-1.2,0-2.2-0.3-3.2-0.9C204.2,82.7,203.3,81.6,202.5,80.2z"/>
		</g>
	</g>
</g>
</svg>
