<?xml version="1.0" encoding="utf-8"?>
<!-- Generator: Adobe Illustrator 23.0.4, SVG Export Plug-In . SVG Version: 6.00 Build 0)  -->
<svg version="1.1" id="Layer_1" xmlns="http://www.w3.org/2000/svg" xmlns:xlink="http://www.w3.org/1999/xlink" x="0px" y="0px"
	 viewBox="0 0 80 80" style="enable-background:new 0 0 80 80;" xml:space="preserve">
<style type="text/css">
	.st0{display:none;}
	.st1{display:inline;fill:none;stroke:#FFFFFF;stroke-width:2;stroke-linecap:round;stroke-linejoin:round;stroke-miterlimit:10;}
	.st2{display:none;fill:#FFFFFF;}
	
		.st3{display:inline;fill-rule:evenodd;clip-rule:evenodd;fill:none;stroke:#FFFFFF;stroke-width:2;stroke-linecap:round;stroke-linejoin:round;stroke-miterlimit:10;}
	.st4{fill:none;stroke:#FFFFFF;stroke-width:2;stroke-linecap:round;stroke-linejoin:round;stroke-miterlimit:10;}
</style>
<rect x="-8" y="-8" class="st0" width="96" height="96"/>
<g class="st0">
	<path class="st1" d="M56.52,2c-0.91,0-1.65,0.74-1.65,1.65v3.3c0,0.91-0.74,1.65-1.65,1.65h-4.96c-0.91,0-1.65-0.74-1.65-1.65v-3.3
		c0-0.91-0.74-1.65-1.65-1.65h-9.91c-0.91,0-1.65,0.74-1.65,1.65v3.3c0,0.91-0.74,1.65-1.65,1.65h-4.96c-0.91,0-1.65-0.74-1.65-1.65
		v-3.3c0-0.91-0.74-1.65-1.65-1.65h-8.26c-0.91,0-1.65,0.74-1.65,1.65v11.57c0,0.91,0.74,1.65,1.65,1.65h49.57
		c0.91,0,1.65-0.74,1.65-1.65V3.65C66.43,2.74,65.7,2,64.78,2H56.52z"/>
	<path class="st1" d="M18.52,61.48c4.57-5.62,8.26-11.57,8.26-18.17s-3.29-13.71-8.26-19.83"/>
	<path class="st1" d="M60.77,23.99c-9.53,11.73-9.53,25.94,0,37.67"/>
	<path class="st1" d="M64.78,78H15.22c-0.91,0-1.65-0.74-1.65-1.65v-6.61c0-0.91,0.74-1.65,1.65-1.65h49.57
		c0.91,0,1.65,0.74,1.65,1.65v6.61C66.43,77.26,65.7,78,64.78,78z"/>
</g>
<path class="st2" d="M16.29,53.82h47.43c0.89,0,1.62-0.56,1.62-1.25V19.76c0-0.69-0.72-1.25-1.62-1.25H16.29
	c-0.89,0-1.62,0.56-1.62,1.25v32.81C14.67,53.26,15.39,53.82,16.29,53.82z M40,24.07c6.68,0,12.09,5.41,12.09,12.09
	S46.68,48.25,40,48.25c-6.68,0-12.09-5.41-12.09-12.09S33.32,24.07,40,24.07z M14.67,60.23c-0.85,0-1.54,0.69-1.54,1.54
	s0.69,1.54,1.54,1.54h10.84c-0.14-0.49-0.21-1-0.21-1.54c0-0.53,0.08-1.05,0.21-1.54H14.67z M35.49,42.68
	c0.14,0.09,0.31,0.14,0.47,0.14c0.16,0,0.31-0.04,0.45-0.12l9.91-5.72c0.29-0.17,0.47-0.48,0.47-0.82c0,0,0-0.01,0-0.01
	c0,0,0,0,0-0.01c-0.01-0.34-0.19-0.65-0.47-0.8l-9.91-5.72c-0.14-0.08-0.29-0.12-0.45-0.12c-0.17,0-0.33,0.05-0.46,0.13
	c-0.28,0.17-0.45,0.48-0.45,0.81v11.44C35.05,42.21,35.22,42.52,35.49,42.68z M73.78,74.16c2.33,0,4.22-1.88,4.22-4.2V10.04
	c0-2.32-1.9-4.2-4.22-4.2H6.23C3.9,5.84,2,7.72,2,10.04v59.92c0,2.32,1.9,4.2,4.23,4.2 M74.16,69.96c0,0.2-0.17,0.36-0.39,0.36H6.23
	c-0.21,0-0.39-0.16-0.39-0.36V10.04c0-0.2,0.17-0.36,0.39-0.36h67.55c0.21,0,0.39,0.16,0.39,0.36V69.96z M65.33,60.23H36.58
	c0.14,0.49,0.21,1,0.21,1.54c0,0.53-0.08,1.05-0.21,1.54h28.75c0.85,0,1.54-0.69,1.54-1.54S66.18,60.23,65.33,60.23z M31.04,58.31
	c-1.9,0-3.45,1.54-3.45,3.45c0,1.9,1.54,3.45,3.45,3.45c1.9,0,3.45-1.54,3.45-3.45C34.49,59.86,32.95,58.31,31.04,58.31z"/>
<g class="st0">
	<path class="st1" d="M44.96,38.35l24.48,25.6C74.87,57.89,78,48.77,78,40C78,20.1,64.12,2.85,44.96,2V38.35z"/>
	<path class="st1" d="M38.35,43.3H2C2.99,61.33,21.29,78,39.61,78c8.79,0,18.46-3.26,24.53-8.68L38.35,43.3z"/>
	<line class="st1" x1="10.26" y1="38.35" x2="3.65" y2="31.74"/>
	<line class="st1" x1="19.48" y1="37.33" x2="6.55" y2="24.43"/>
	<line class="st1" x1="30.3" y1="36.99" x2="9.51" y2="16.25"/>
	<line class="st1" x1="36.7" y1="31.74" x2="15.22" y2="10.26"/>
	<line class="st1" x1="37.34" y1="21.51" x2="23.13" y2="7.34"/>
	<line class="st1" x1="38.35" y1="11.91" x2="30.09" y2="3.65"/>
</g>
<g class="st0">
	<path class="st1" d="M42.72,22.68"/>
	<line class="st1" x1="5.77" y1="23.48" x2="31.74" y2="23.48"/>
	<path class="st1" d="M42.72,57.33"/>
	<line class="st1" x1="5.77" y1="56.52" x2="31.74" y2="56.52"/>
	<path class="st1" d="M45.54,40"/>
	<line class="st1" x1="2" y1="40" x2="40" y2="40"/>
	<path class="st1" d="M40,78c-9.7-3.05-21.48-17.14-21.48-38C18.52,19.14,30.3,5.05,40,2"/>
	<line class="st1" x1="40" y1="78" x2="40" y2="2"/>
	<path class="st1" d="M40,78C19.01,78,2,60.99,2,40C2,19.01,19.01,2,40,2"/>
	<path class="st1" d="M44.96,31.55c2.89,1.79,4.95,5.02,4.95,8.45c0,3.43-2.06,6.65-4.95,8.45"/>
	<path class="st1" d="M44.95,19.1c9.47,2.24,16.52,10.75,16.52,20.9c0,10.16-7.05,18.67-16.52,20.9"/>
	<path class="st1" d="M44.95,77.33l0-2.03c0-1.38,0.53-2.73,1.52-3.7c0.78-0.76,1.09-0.77,1.52-0.9c1.49-0.45,3.09,0.11,3.86,1.46
		l1.66,2.89c0.18,0.31,0.6,0.43,0.91,0.24l8.55-4.94c0.3-0.17,0.4-0.56,0.23-0.86l-1.67-2.9c-0.76-1.32-0.5-2.99,0.61-4.04
		c0.17-0.16,0.32-0.32,0.52-0.51c1.01-0.95,2.84-1.14,4.04-0.45l2.76,1.59c0.32,0.19,0.73,0.08,0.91-0.24l4.92-8.52
		c0.19-0.32,0.08-0.72-0.24-0.91l-2.55-1.47c-0.83-0.48-1.51-1.24-1.75-2.17c-0.63-2.47,1.11-4.91,3.44-4.91l3.2,0
		c0.34,0,0.62-0.28,0.62-0.62V35.7c0-0.36-0.29-0.66-0.65-0.66h-3.16c-1.64,0-3-1.22-3.43-2.81c-0.02-0.06-0.03-0.12-0.05-0.17
		c-0.43-1.55,0.21-3.21,1.6-4.01l2.73-1.57c0.32-0.19,0.43-0.6,0.24-0.91l-4.9-8.51c-0.19-0.32-0.6-0.43-0.91-0.24l-2.72,1.57
		c-1.39,0.8-3.15,0.57-4.26-0.58c-0.05-0.06-0.11-0.11-0.16-0.17c-1.16-1.16-1.53-2.94-0.71-4.37l1.57-2.73
		c0.18-0.31,0.08-0.72-0.24-0.91l-8.53-4.91c-0.32-0.18-0.72-0.08-0.91,0.24l-1.57,2.73c-0.82,1.43-2.57,1.99-4.16,1.57
		c-0.03-0.01-0.06-0.02-0.09-0.02c-1.63-0.35-2.74-1.9-2.74-3.57v-3"/>
</g>
<g class="st0">
	<path class="st3" d="M51.57,61.48c0-8.26,4.71-11.98,6.96-16.59c0.01,0,0.02-0.01,0.01-0.02c0-0.01,0.01-0.02,0.01-0.02
		c1.91-3.29,2.93-6.5,2.93-11.46c0-6.61-2.31-10.66-5.93-14.49c-3.98-4.2-9.34-7.07-15.54-6.99"/>
	<path class="st3" d="M28.43,61.48c0-8.26-4.71-11.98-6.96-16.59c-0.01,0-0.02-0.01-0.01-0.02c0-0.01-0.01-0.02-0.01-0.02
		c-1.91-3.29-2.93-6.5-2.93-11.46c0-6.61,2.31-10.66,5.93-14.49c3.98-4.2,9.34-7.07,15.54-6.99"/>
	<path class="st1" d="M51.57,61.48v4.96c0,1.82-1.48,3.3-3.3,3.3H31.74c-1.83,0-3.3-1.48-3.3-3.3v-4.96h16.52"/>
	<path class="st3" d="M31.74,69.74c0,4.96,3.3,8.26,8.26,8.26s8.26-3.3,8.26-8.26"/>
	<line class="st1" x1="40" y1="6.96" x2="40" y2="2"/>
	<line class="st1" x1="26.14" y1="10.16" x2="23.96" y2="6.45"/>
	<line class="st1" x1="16.35" y1="20.31" x2="12.61" y2="18.2"/>
	<line class="st1" x1="13.56" y1="33.39" x2="8.61" y2="33.39"/>
	<line class="st1" x1="16.69" y1="47.7" x2="13.01" y2="49.91"/>
	<line class="st1" x1="53.25" y1="9.81" x2="55.34" y2="6.04"/>
	<line class="st1" x1="63.31" y1="19.7" x2="66.98" y2="17.49"/>
	<line class="st1" x1="66.44" y1="33.39" x2="71.39" y2="33.39"/>
	<line class="st1" x1="63.66" y1="47.09" x2="67.39" y2="49.2"/>
</g>
<g class="st0">
	<polyline class="st1" points="26.78,61.48 26.78,18.52 53.22,18.52 53.22,61.48 	"/>
	<path class="st1" d="M53.22,18.52C52.03,16.03,48.23,7.81,40,2c-8.23,5.81-12.03,14.03-13.22,16.52"/>
	<path class="st1" d="M21.83,23.48c-1.65,1.65-2.99,4.29-3.3,4.96"/>
	<path class="st1" d="M60.27,52.52c4.6,4.33,11.12,7.88,11.12,15.57c0,1.65-1.15,3.3-2.58,3.3H55.63c-1.33,0-2.42,1.08-2.42,2.42
		v1.78c0,1.33-1.08,2.42-2.42,2.42H40H29.2c-1.33,0-2.42-1.08-2.42-2.42v-1.78c0-1.33-1.08-2.42-2.42-2.42H11.18
		c-1.43,0-2.58-1.65-2.58-3.3c0-7.7,6.52-11.24,11.12-15.57"/>
	<circle class="st1" cx="40" cy="38.35" r="6.61"/>
	<line class="st1" x1="18.52" y1="46.61" x2="18.52" y2="28.43"/>
	<path class="st1" d="M58.17,23.48c1.65,1.65,2.99,4.29,3.3,4.96"/>
	<line class="st1" x1="61.48" y1="46.61" x2="61.48" y2="28.43"/>
	<line class="st1" x1="40" y1="78" x2="40" y2="66.43"/>
</g>
<g>
	<path class="st4" d="M2,69.74v-41.3c0-0.91,0.74-1.65,1.65-1.65h8.26c0.91,0,1.65,0.74,1.65,1.65v41.3"/>
	<path class="st4" d="M23.48,69.74V38.35c0-0.91,0.74-1.65,1.65-1.65h8.26c0.91,0,1.65,0.74,1.65,1.65v31.39"/>
	<path class="st4" d="M44.96,69.74V18.52c0-0.91,0.74-1.65,1.65-1.65h8.26c0.91,0,1.65,0.74,1.65,1.65v51.22"/>
	<path class="st4" d="M66.43,69.74V3.65c0-0.91,0.74-1.65,1.65-1.65h8.26C77.26,2,78,2.74,78,3.65v66.09"/>
	<line class="st4" x1="2" y1="78" x2="78" y2="78"/>
</g>
</svg>
