<?xml version="1.0" encoding="utf-8"?>
<!-- Generator: Adobe Illustrator 23.0.4, SVG Export Plug-In . SVG Version: 6.00 Build 0)  -->
<svg version="1.1" id="Layer_1" xmlns="http://www.w3.org/2000/svg" xmlns:xlink="http://www.w3.org/1999/xlink" x="0px" y="0px"
	 viewBox="0 0 80 80" style="enable-background:new 0 0 80 80;" xml:space="preserve">
<style type="text/css">
	.st0{display:none;}
	.st1{fill:none;stroke:#FFFFFF;stroke-width:2;stroke-linecap:round;stroke-linejoin:round;stroke-miterlimit:10;}
</style>
<rect x="-8" y="-8" class="st0" width="96" height="96"/>
<g>
	<path class="st1" d="M56.52,2c-0.91,0-1.65,0.74-1.65,1.65v3.3c0,0.91-0.74,1.65-1.65,1.65h-4.96c-0.91,0-1.65-0.74-1.65-1.65v-3.3
		c0-0.91-0.74-1.65-1.65-1.65h-9.91c-0.91,0-1.65,0.74-1.65,1.65v3.3c0,0.91-0.74,1.65-1.65,1.65h-4.96c-0.91,0-1.65-0.74-1.65-1.65
		v-3.3c0-0.91-0.74-1.65-1.65-1.65h-8.26c-0.91,0-1.65,0.74-1.65,1.65v11.57c0,0.91,0.74,1.65,1.65,1.65h49.57
		c0.91,0,1.65-0.74,1.65-1.65V3.65C66.43,2.74,65.7,2,64.78,2H56.52z"/>
	<path class="st1" d="M18.52,61.48c4.57-5.62,8.26-11.57,8.26-18.17s-3.29-13.71-8.26-19.83"/>
	<path class="st1" d="M60.77,23.99c-9.53,11.73-9.53,25.94,0,37.67"/>
	<path class="st1" d="M64.78,78H15.22c-0.91,0-1.65-0.74-1.65-1.65v-6.61c0-0.91,0.74-1.65,1.65-1.65h49.57
		c0.91,0,1.65,0.74,1.65,1.65v6.61C66.43,77.26,65.7,78,64.78,78z"/>
</g>
</svg>
