<?xml version="1.0" encoding="utf-8"?>
<!-- Generator: Adobe Illustrator 23.0.4, SVG Export Plug-In . SVG Version: 6.00 Build 0)  -->
<svg version="1.1" id="Layer_1" xmlns="http://www.w3.org/2000/svg" xmlns:xlink="http://www.w3.org/1999/xlink" x="0px" y="0px"
	 viewBox="0 0 80 80" style="enable-background:new 0 0 80 80;" xml:space="preserve">
<style type="text/css">
	.st0{display:none;}
	.st1{display:inline;fill:none;stroke:#FFFFFF;stroke-width:2;stroke-linecap:round;stroke-linejoin:round;stroke-miterlimit:10;}
	.st2{fill:#FFFFFF;}
</style>
<rect x="-8" y="-8" class="st0" width="96" height="96"/>
<g class="st0">
	<path class="st1" d="M56.52,2c-0.91,0-1.65,0.74-1.65,1.65v3.3c0,0.91-0.74,1.65-1.65,1.65h-4.96c-0.91,0-1.65-0.74-1.65-1.65v-3.3
		c0-0.91-0.74-1.65-1.65-1.65h-9.91c-0.91,0-1.65,0.74-1.65,1.65v3.3c0,0.91-0.74,1.65-1.65,1.65h-4.96c-0.91,0-1.65-0.74-1.65-1.65
		v-3.3c0-0.91-0.74-1.65-1.65-1.65h-8.26c-0.91,0-1.65,0.74-1.65,1.65v11.57c0,0.91,0.74,1.65,1.65,1.65h49.57
		c0.91,0,1.65-0.74,1.65-1.65V3.65C66.43,2.74,65.7,2,64.78,2H56.52z"/>
	<path class="st1" d="M18.52,61.48c4.57-5.62,8.26-11.57,8.26-18.17s-3.29-13.71-8.26-19.83"/>
	<path class="st1" d="M60.77,23.99c-9.53,11.73-9.53,25.94,0,37.67"/>
	<path class="st1" d="M64.78,78H15.22c-0.91,0-1.65-0.74-1.65-1.65v-6.61c0-0.91,0.74-1.65,1.65-1.65h49.57
		c0.91,0,1.65,0.74,1.65,1.65v6.61C66.43,77.26,65.7,78,64.78,78z"/>
</g>
<path class="st2" d="M16.29,53.82h47.43c0.89,0,1.62-0.56,1.62-1.25V19.76c0-0.69-0.72-1.25-1.62-1.25H16.29
	c-0.89,0-1.62,0.56-1.62,1.25v32.81C14.67,53.26,15.39,53.82,16.29,53.82z M40,24.07c6.68,0,12.09,5.41,12.09,12.09
	S46.68,48.25,40,48.25c-6.68,0-12.09-5.41-12.09-12.09S33.32,24.07,40,24.07z M14.67,60.23c-0.85,0-1.54,0.69-1.54,1.54
	s0.69,1.54,1.54,1.54h10.84c-0.14-0.49-0.21-1-0.21-1.54c0-0.53,0.08-1.05,0.21-1.54H14.67z M35.49,42.68
	c0.14,0.09,0.31,0.14,0.47,0.14c0.16,0,0.31-0.04,0.45-0.12l9.91-5.72c0.29-0.17,0.47-0.48,0.47-0.82c0,0,0-0.01,0-0.01
	c0,0,0,0,0-0.01c-0.01-0.34-0.19-0.65-0.47-0.8l-9.91-5.72c-0.14-0.08-0.29-0.12-0.45-0.12c-0.17,0-0.33,0.05-0.46,0.13
	c-0.28,0.17-0.45,0.48-0.45,0.81v11.44C35.05,42.21,35.22,42.52,35.49,42.68z M73.78,74.16c2.33,0,4.22-1.88,4.22-4.2V10.04
	c0-2.32-1.9-4.2-4.22-4.2H6.23C3.9,5.84,2,7.72,2,10.04v59.92c0,2.32,1.9,4.2,4.23,4.2 M74.16,69.96c0,0.2-0.17,0.36-0.39,0.36H6.23
	c-0.21,0-0.39-0.16-0.39-0.36V10.04c0-0.2,0.17-0.36,0.39-0.36h67.55c0.21,0,0.39,0.16,0.39,0.36V69.96z M65.33,60.23H36.58
	c0.14,0.49,0.21,1,0.21,1.54c0,0.53-0.08,1.05-0.21,1.54h28.75c0.85,0,1.54-0.69,1.54-1.54S66.18,60.23,65.33,60.23z M31.04,58.31
	c-1.9,0-3.45,1.54-3.45,3.45c0,1.9,1.54,3.45,3.45,3.45c1.9,0,3.45-1.54,3.45-3.45C34.49,59.86,32.95,58.31,31.04,58.31z"/>
</svg>
