<?xml version="1.0" encoding="utf-8"?>
<!-- Generator: Adobe Illustrator 23.0.3, SVG Export Plug-In . SVG Version: 6.00 Build 0)  -->
<svg version="1.1" id="Layer_1" xmlns="http://www.w3.org/2000/svg" xmlns:xlink="http://www.w3.org/1999/xlink" x="0px" y="0px"
	 viewBox="0 0 96.21 40" style="enable-background:new 0 0 96.21 40;" xml:space="preserve">
<style type="text/css">
	.st0{fill:#FFFFFF;}
	.st1{fill:none;stroke:#FFFFFF;stroke-width:0.787;}
</style>
<g>
	<g>
		<g>
			<path class="st0" d="M15.97,29.88h-2.4l-0.41-2.75h-2.92l-0.41,2.75H7.64l2.43-15.16h3.49L15.97,29.88z M10.54,25.07h2.29
				l-1.13-7.67h-0.04L10.54,25.07z"/>
			<path class="st0" d="M24.96,21.43h3.34v4.81c0,2.43-1.21,3.81-3.55,3.81s-3.55-1.39-3.55-3.81v-7.88c0-2.43,1.21-3.81,3.55-3.81
				s3.55,1.39,3.55,3.81v1.47h-2.25v-1.62c0-1.08-0.48-1.49-1.23-1.49c-0.76,0-1.23,0.41-1.23,1.49v8.19c0,1.08,0.48,1.47,1.23,1.47
				c0.76,0,1.23-0.39,1.23-1.47V23.6h-1.08V21.43z"/>
			<path class="st0" d="M36.52,21.11h3.27v2.17h-3.27v4.44h4.11v2.17h-6.5V14.72h6.5v2.17h-4.11V21.11z"/>
			<path class="st0" d="M48.6,18.9h-0.04v10.98h-2.14V14.72h2.99l2.4,9.07h0.04v-9.07h2.12v15.16h-2.45L48.6,18.9z"/>
			<path class="st0" d="M66.91,24.23v2.01c0,2.43-1.21,3.81-3.55,3.81s-3.55-1.39-3.55-3.81v-7.88c0-2.43,1.21-3.81,3.55-3.81
				s3.55,1.39,3.55,3.81v1.47h-2.25v-1.62c0-1.08-0.48-1.49-1.23-1.49c-0.76,0-1.23,0.41-1.23,1.49v8.19c0,1.08,0.48,1.47,1.23,1.47
				c0.76,0,1.23-0.39,1.23-1.47v-2.17H66.91z"/>
			<path class="st0" d="M74.68,24.86l-3.01-10.13h2.49l1.8,6.91H76l1.8-6.91h2.27l-3.01,10.13v5.02h-2.38V24.86z"/>
			<path class="st0" d="M85.58,6.7c0-0.75-0.26-0.95-0.68-0.95c-0.42,0-0.68,0.23-0.68,0.82v0.54h-1.24V6.65
				c0-1.34,0.67-2.1,1.96-2.1c1.29,0,1.96,0.76,1.96,2.1v0.21c0,0.9-0.29,1.44-0.92,1.71V8.6c0.66,0.29,0.92,0.9,0.92,1.74V11
				c0,1.34-0.67,2.1-1.96,2.1c-1.29,0-1.96-0.76-1.96-2.1V10.3h1.24v0.78c0,0.6,0.26,0.82,0.68,0.82c0.42,0,0.68-0.2,0.68-0.94V10.3
				c0-0.78-0.26-1.06-0.86-1.06h-0.44V8.05h0.51c0.49,0,0.79-0.21,0.79-0.88V6.7z"/>
			<line class="st1" x1="82.57" y1="14.97" x2="87.44" y2="14.97"/>
		</g>
		<g>
			<path class="st0" d="M95.21,1v38H1V1H95.21 M96.21,0H0v40h96.21V0L96.21,0z"/>
		</g>
	</g>
</g>
</svg>
